# xmcd CD database file
#
# Track frame offsets:
#	187
#	15055
#	31297
#	46442
#	62300
#	90285
#	102522
#	116482
#	132330
#	148847
#
# Disc length: 2183 seconds
#
# Revision: 0
# Processed by: cddbd v1.4PL0 Copyright (c) Steve Scherf et al.
# Submitted via: CDex 1.40Beta8
#
DISCID=7708850a
DTITLE=Various Artist - Today's Country Classics
DYEAR=1986
DGENRE=Country
TTITLE0=Life's Highway - Steve Wariner
TTITLE1=Fast Lanes and Country Roads - Barbara Mandrell
TTITLE2=You're the Last Thing I Need Tonight - John Schneider
TTITLE3=Sexy Young Girl - Mac Davis
TTITLE4=The Haircut Song - Ray Stevens
TTITLE5=Working Without a Net - Waylon Jennings
TTITLE6=Don't Underestimate My Love for You - Lee Greenwood
TTITLE7=Juliet - The Oakridge Boys
TTITLE8=Only in My Mind - Reba McEntire
TTITLE9=You're Something Special to Me- George Straight
EXTD=YEAR: 1986 ID3G: 2
EXTT0=
EXTT1=
EXTT2=
EXTT3=
EXTT4=
EXTT5=
EXTT6=
EXTT7=
EXTT8=
EXTT9=
PLAYORDER=
